<svg xmlns="http://www.w3.org/2000/svg" viewBox="0 0 48 48"><defs><style>.cls-1{fill:#201602;}</style></defs><title>Asset 43ldpi</title><g id="Layer_2" data-name="Layer 2"><g id="layer_1-2" data-name="layer 1"><path class="cls-1" d="M17.26,47A24,24,0,0,1,24,0V2a22,22,0,0,0-6.18,43.12Z"/><path class="cls-1" d="M24,48V46A22,22,0,0,0,30.18,2.88L30.74,1A24,24,0,0,1,24,48Z"/><path class="cls-1" d="M18,48H11V46h5.38l-2.27-4.55,1.78-.9,3,6A1,1,0,0,1,18,48Z"/><path class="cls-1" d="M32.11,7.45l-3-6A1,1,0,0,1,30,0h7V2H31.62l2.27,4.55Z"/><path class="cls-1" d="M24,39A15,15,0,1,1,39,24,15,15,0,0,1,24,39Zm0-28A13,13,0,1,0,37,24,13,13,0,0,0,24,11Z"/><path class="cls-1" d="M18,29c-2.21,0-4-2.24-4-5a3.71,3.71,0,0,1,4-4,3.71,3.71,0,0,1,4,4C22,26.76,20.21,29,18,29Zm0-7c-1.79,0-2,1.14-2,2,0,1.6.93,3,2,3s2-1.4,2-3C20,23.14,19.79,22,18,22Z"/><path class="cls-1" d="M25,38H23V30.69a1,1,0,0,0-.84-1L18,29l-4.17.7a1,1,0,0,0-.83,1V31H11v-.31a3,3,0,0,1,2.51-3L17.84,27a1.71,1.71,0,0,1,.32,0l4.33.73a3,3,0,0,1,2.51,3Z"/><path class="cls-1" d="M30,26c-2.21,0-4-2.24-4-5a3.71,3.71,0,0,1,4-4,3.71,3.71,0,0,1,4,4C34,23.76,32.21,26,30,26Zm0-7c-1.79,0-2,1.14-2,2,0,1.6.93,3,2,3s2-1.4,2-3C32,20.14,31.79,19,30,19Z"/><path class="cls-1" d="M37,31H35V27.69a1,1,0,0,0-.84-1L30,26l-4.17.7a1,1,0,0,0-.83,1H23a3,3,0,0,1,2.51-3L29.84,24a1.71,1.71,0,0,1,.32,0l4.33.73a3,3,0,0,1,2.51,3Z"/><rect class="cls-1" x="29" y="28" width="2" height="2"/><rect class="cls-1" x="29" y="32" width="2" height="2"/></g></g></svg>